<svg width="512" height="512" viewBox="0 0 512 512" fill="none" xmlns="http://www.w3.org/2000/svg">
  <rect width="512" height="512" rx="128" fill="url(#gradient)"/>
  <g transform="translate(80, 80)">
    <!-- Calendar outline -->
    <rect x="40" y="60" width="272" height="240" rx="20" fill="white" fill-opacity="0.2"/>
    <rect x="40" y="60" width="272" height="60" rx="20" fill="white"/>
    
    <!-- Calendar pins -->
    <rect x="100" y="40" width="16" height="50" rx="8" fill="white"/>
    <rect x="236" y="40" width="16" height="50" rx="8" fill="white"/>
    
    <!-- Calendar grid -->
    <circle cx="100" cy="170" r="16" fill="white" fill-opacity="0.6"/>
    <circle cx="176" cy="170" r="16" fill="#10b981"/>
    <circle cx="252" cy="170" r="16" fill="white" fill-opacity="0.6"/>
    
    <circle cx="100" cy="230" r="16" fill="#10b981"/>
    <circle cx="176" cy="230" r="16" fill="#10b981"/>
    <circle cx="252" cy="230" r="16" fill="#f59e0b"/>
    
    <circle cx="100" cy="290" r="16" fill="white" fill-opacity="0.6"/>
    <circle cx="176" cy="290" r="16" fill="#10b981"/>
    <circle cx="252" cy="290" r="16" fill="white" fill-opacity="0.6"/>
    
    <!-- Check mark -->
    <path d="M148 225 L168 245 L208 195" stroke="white" stroke-width="8" stroke-linecap="round" stroke-linejoin="round" fill="none"/>
  </g>
  
  <defs>
    <linearGradient id="gradient" x1="0" y1="0" x2="512" y2="512" gradientUnits="userSpaceOnUse">
      <stop stop-color="#6366f1"/>
      <stop offset="1" stop-color="#a855f7"/>
    </linearGradient>
  </defs>
</svg>
